<?xml version="1.0" standalone="no"?>
<!DOCTYPE svg PUBLIC "-//W3C//DTD SVG 20010904//EN"
 "http://www.w3.org/TR/2001/REC-SVG-20010904/DTD/svg10.dtd">
<svg version="1.0" xmlns="http://www.w3.org/2000/svg"
 width="300.000000pt" height="300.000000pt" viewBox="0 0 300.000000 300.000000"
 preserveAspectRatio="xMidYMid meet">
<metadata>
Created by potrace 1.10, written by Peter Selinger 2001-2011
</metadata>
<g transform="translate(0.000000,300.000000) scale(0.100000,-0.100000)"
fill="#000000" stroke="none">
<path d="M951 2328 c-4 -13 -14 -66 -20 -119 -13 -106 -3 -234 25 -311 9 -24
17 -58 17 -77 2 -30 8 -38 42 -55 28 -15 41 -28 43 -46 7 -68 15 -92 39 -120
54 -65 149 -88 226 -55 20 8 39 15 42 15 6 0 1 -23 -16 -67 l-8 -22 -43 18
c-64 28 -176 45 -242 37 -43 -6 -63 -14 -81 -34 -25 -26 -25 -26 -25 -4 0 26
-8 27 -38 6 -32 -22 -39 -10 -12 18 23 23 110 196 110 217 0 6 -7 11 -15 11
-8 0 -18 1 -21 3 -4 1 -13 -16 -21 -38 -29 -84 -88 -177 -161 -254 -17 -17
-10 -23 60 -46 32 -10 95 -37 140 -60 80 -39 83 -42 78 -70 -3 -17 -5 -77 -5
-135 0 -97 3 -110 31 -167 38 -74 93 -142 149 -182 l41 -29 13 45 c15 49 70
137 86 136 6 0 18 -18 29 -39 18 -37 18 -42 2 -101 -9 -34 -16 -66 -16 -71 0
-13 70 -21 120 -15 46 6 48 16 27 98 -13 46 -12 54 7 98 l22 48 21 -29 c32
-43 73 -129 73 -152 0 -20 2 -19 44 9 133 92 216 281 189 428 -6 32 -13 64
-15 72 -4 17 140 93 222 118 30 9 59 20 64 24 5 4 -12 31 -38 59 -44 49 -136
216 -136 246 0 10 -7 13 -25 8 -30 -7 -33 9 -6 28 12 8 21 30 24 58 3 25 15
79 27 120 19 65 21 92 16 195 -5 127 -19 193 -41 201 -35 14 -247 -120 -339
-215 -34 -35 -42 -39 -60 -28 -26 14 -192 14 -227 -1 -24 -9 -30 -6 -73 38
-67 69 -142 125 -230 170 -89 46 -103 48 -115 18z m60 -69 c-26 -25 -31 -24
-31 5 0 27 18 39 38 23 10 -8 8 -14 -7 -28z m976 4 c15 -70 8 -273 -11 -337
-10 -32 -19 -66 -21 -75 -1 -9 -8 -16 -16 -16 -8 0 -13 6 -11 13 1 9 -34 12
-150 12 -160 0 -196 -8 -224 -49 -22 -31 -110 -21 -163 17 l-44 32 -155 0
-154 0 15 23 c12 19 13 27 2 47 -24 46 -36 135 -33 229 l3 95 35 -30 c19 -17
55 -42 80 -56 25 -15 70 -51 100 -80 l56 -54 34 15 c53 23 254 22 298 -2 l34
-18 39 40 c43 43 123 111 131 111 3 0 -12 -34 -34 -75 l-39 -75 47 -73 c26
-39 49 -74 50 -76 2 -2 11 5 21 14 17 17 15 21 -45 76 l-63 57 42 76 c38 67
112 146 125 133 3 -2 5 -47 5 -99 0 -95 -11 -165 -33 -213 -10 -22 -9 -28 3
-36 19 -12 32 -11 24 2 -4 5 0 25 9 43 19 41 37 163 35 234 -2 44 -7 57 -30
76 -25 22 -26 25 -11 40 26 25 40 19 49 -21z m-988 -288 c5 -22 13 -51 17 -64
5 -18 4 -23 -7 -19 -11 4 -37 92 -39 133 -1 22 20 -13 29 -50z m350 -179 c32
-29 45 -88 28 -129 -24 -55 -70 -87 -129 -87 -84 0 -138 56 -138 142 1 77 35
100 141 96 59 -2 82 -8 98 -22z m468 9 c54 -38 51 -134 -6 -189 -79 -76 -214
-33 -228 72 -13 95 28 132 142 132 47 0 78 -5 92 -15z m-369 -38 c19 -1 14
-14 -8 -20 -33 -9 -35 -8 -36 13 -1 16 3 19 15 14 9 -3 22 -7 29 -7z m112 -6
c0 -15 -19 -23 -38 -16 -14 5 -14 7 -2 15 19 12 40 13 40 1z m396 -48 c34 -87
86 -180 119 -217 19 -21 35 -40 35 -42 0 -14 -43 -1 -47 15 -5 21 -53 48 -53
30 0 -7 -9 -6 -23 4 -47 31 -126 39 -217 21 -87 -16 -128 -32 -149 -58 -19
-22 -28 -12 -36 37 -3 23 -9 50 -11 59 -5 15 2 14 48 -7 92 -43 182 -26 241
45 29 33 52 104 41 121 -6 11 12 29 29 29 4 0 15 -17 23 -37z m-442 11 c9 -3
16 -17 16 -31 0 -14 6 -39 14 -56 8 -18 17 -68 19 -112 3 -44 11 -95 17 -113
l12 -32 42 44 c23 25 60 53 81 62 74 31 192 19 310 -31 l40 -17 -52 -19 c-28
-11 -95 -44 -148 -74 -88 -48 -95 -54 -69 -57 29 -4 29 -5 -45 -76 -77 -76
-160 -132 -231 -157 -39 -14 -45 -13 -103 10 -72 30 -190 118 -241 180 -35 42
-35 44 -14 47 17 2 -1 16 -76 57 -55 30 -119 62 -143 71 l-43 16 51 23 c167
73 294 62 377 -33 39 -45 46 -36 49 71 2 68 6 87 28 118 14 21 25 50 25 64 0
44 36 63 84 45z m-202 -659 c33 -19 64 -35 70 -35 6 0 -8 -20 -30 -44 -22 -24
-53 -68 -68 -97 l-27 -54 -38 44 c-22 24 -54 73 -72 110 -28 57 -32 77 -35
161 l-4 95 73 -73 c40 -40 99 -88 131 -107z m540 34 c-15 -80 -50 -154 -102
-212 l-43 -49 -24 49 c-12 26 -41 68 -63 92 -22 25 -40 46 -40 48 0 1 28 17
61 34 38 19 89 58 133 102 l71 72 9 -38 c6 -25 5 -60 -2 -98z m-352 -89 c35 9
57 2 63 -21 3 -10 2 -17 -3 -14 -4 2 -19 -18 -34 -45 -24 -44 -26 -56 -20
-109 6 -54 5 -59 -15 -66 -34 -10 -42 2 -35 53 3 26 8 50 10 54 6 9 -21 63
-47 96 -28 36 -1 70 41 52 8 -4 26 -4 40 0z"/>
<path d="M1156 2103 c18 -37 34 -72 33 -78 0 -5 -22 -28 -49 -50 -54 -45 -77
-79 -29 -43 67 50 72 51 32 5 -46 -49 -59 -84 -20 -51 27 23 31 28 62 82 32
55 31 78 -3 133 -48 74 -63 76 -26 2z"/>
<path d="M1415 2040 c-4 -6 27 -10 87 -9 64 1 84 4 63 9 -45 11 -143 11 -150
0z"/>
<path d="M1297 1964 c-11 -11 3 -24 27 -24 12 0 27 -5 34 -12 16 -16 29 -1 16
20 -11 17 -64 29 -77 16z"/>
<path d="M1598 1959 c-10 -5 -18 -17 -18 -24 0 -17 11 -19 26 -6 5 5 20 11 33
13 14 1 26 9 29 16 5 15 -45 16 -70 1z"/>
<path d="M1252 1749 c-33 -12 -40 -58 -12 -81 30 -25 56 -23 75 6 30 46 -10
94 -63 75z"/>
<path d="M1646 1729 c-18 -26 -4 -65 26 -75 25 -8 68 21 68 46 0 47 -67 67
-94 29z"/>
<path d="M1420 1538 c0 -35 -4 -78 -9 -96 -8 -25 -7 -32 2 -29 32 10 50 175
20 185 -10 3 -13 -13 -13 -60z"/>
<path d="M1440 1409 c-48 -20 -53 -58 -14 -94 46 -42 121 -25 138 31 14 47
-65 87 -124 63z m74 -32 c17 -13 17 -14 1 -30 -21 -21 -39 -22 -56 -1 -11 14
-10 18 6 30 23 17 27 17 49 1z"/>
<path d="M1822 1385 c-106 -36 -171 -71 -219 -117 -41 -41 -83 -52 -105 -30
-7 7 -18 6 -35 -3 -33 -17 -74 -3 -107 36 -28 33 -56 38 -56 10 0 -27 39 -71
76 -87 44 -18 177 -18 212 0 44 23 85 72 78 93 -5 15 1 21 31 30 55 16 231 92
213 92 -8 0 -48 -11 -88 -24z"/>
<path d="M1750 1019 c-17 -33 -36 -72 -41 -87 -10 -25 -9 -25 8 -10 17 16 32
43 64 113 7 17 15 33 17 38 2 4 -2 7 -7 7 -6 0 -25 -27 -41 -61z"/>
<path d="M1005 1655 c-10 -22 -21 -44 -23 -49 -3 -5 0 -6 7 -2 16 10 43 65 38
79 -2 7 -12 -6 -22 -28z"/>
</g>
</svg>
